<?xml version="1.0" encoding="utf-8"?>
<!-- Generator: Adobe Illustrator 19.1.0, SVG Export Plug-In . SVG Version: 6.00 Build 0)  -->
<svg version="1.1" id="Layer_1" xmlns="http://www.w3.org/2000/svg" xmlns:xlink="http://www.w3.org/1999/xlink" x="0px" y="0px"
	 viewBox="-551.6 -6 594.6 518" style="enable-background:new -551.6 -6 594.6 518;" xml:space="preserve">
<style type="text/css">
	.st0{fill:none;stroke:#FFBD07;stroke-width:2;stroke-linecap:round;stroke-miterlimit:10;}
</style>
<ellipse transform="matrix(0.3711 -0.9286 0.9286 0.3711 -557.1697 149.5186)" class="st0" cx="-168.2" cy="486.1" rx="16.9" ry="23.5"/>
<line class="st0" x1="-183.4" y1="480" x2="-153" y2="492.2"/>
<ellipse transform="matrix(-8.542420e-02 -0.9963 0.9963 -8.542420e-02 -194.8711 205.3217)" class="st0" cx="-3.2" cy="192.1" rx="16.9" ry="23.5"/>
<line class="st0" x1="-19.5" y1="193.5" x2="13.1" y2="190.7"/>
<ellipse transform="matrix(0.9584 -0.2853 0.2853 0.9584 -115.0607 -5.7301)" class="st0" cx="-77.2" cy="392.1" rx="16.9" ry="23.5"/>
<line class="st0" x1="-81.9" y1="376.4" x2="-72.5" y2="407.8"/>
<ellipse transform="matrix(0.9609 0.2769 -0.2769 0.9609 96.4539 149.2639)" class="st0" cx="-480.2" cy="416.1" rx="16.9" ry="23.5"/>
<line class="st0" x1="-475.7" y1="400.3" x2="-484.7" y2="431.9"/>
<ellipse transform="matrix(0.9666 -0.2565 0.2565 0.9666 -37.2413 -107.3543)" class="st0" cx="-430.2" cy="89.1" rx="16.9" ry="23.5"/>
<line class="st0" x1="-434.4" y1="73.2" x2="-426" y2="105"/>
<ellipse transform="matrix(0.4649 -0.8853 0.8853 0.4649 -423.8286 -103.0863)" class="st0" cx="-297.2" cy="299.1" rx="16.9" ry="23.5"/>
<line class="st0" x1="-311.7" y1="291.5" x2="-282.7" y2="306.7"/>
<ellipse transform="matrix(0.6487 0.7611 -0.7611 0.6487 -20.3874 272.3645)" class="st0" cx="-305.2" cy="114.1" rx="16.9" ry="23.5"/>
<line class="st0" x1="-292.7" y1="103.5" x2="-317.7" y2="124.7"/>
<ellipse transform="matrix(0.894 0.448 -0.448 0.894 39.6871 98.4258)" class="st0" cx="-188.2" cy="133.1" rx="16.9" ry="23.5"/>
<line class="st0" x1="-180.9" y1="118.4" x2="-195.5" y2="147.8"/>
</svg>
